<?xml version="1.0" standalone="no"?><!DOCTYPE svg PUBLIC "-//W3C//DTD SVG 1.1//EN" "http://www.w3.org/Graphics/SVG/1.1/DTD/svg11.dtd"><svg t="1626095485774" class="icon" viewBox="0 0 1024 1024" version="1.1" xmlns="http://www.w3.org/2000/svg" p-id="2320" xmlns:xlink="http://www.w3.org/1999/xlink" width="200" height="200"><defs><style type="text/css"></style></defs><path d="M798.293333 832C762.88 884.906667 725.333333 936.533333 668.16 937.386667 610.986667 938.666667 592.64 903.68 527.786667 903.68 462.506667 903.68 442.453333 936.533333 388.266667 938.666667 332.373333 940.8 290.133333 882.346667 254.293333 830.72 181.333333 725.333333 125.44 531.2 200.533333 400.64 237.653333 335.786667 304.213333 294.826667 376.32 293.546667 430.933333 292.693333 482.986667 330.666667 516.693333 330.666667 549.973333 330.666667 613.12 285.013333 679.253333 291.84 706.986667 293.12 784.64 302.933333 834.56 376.32 830.72 378.88 741.973333 430.933333 742.826667 538.88 744.106667 667.733333 855.893333 710.826667 857.173333 711.253333 855.893333 714.24 839.253333 772.693333 798.293333 832M554.666667 149.333333C585.813333 113.92 637.44 87.04 680.106667 85.333333 685.653333 135.253333 665.6 185.6 635.733333 221.44 606.293333 257.706667 557.653333 285.866667 509.866667 282.026667 503.466667 232.96 527.36 181.76 554.666667 149.333333Z" p-id="2321"></path></svg>